# xmcd CD database file
#
# Track frame offsets:
#	150
#	15385
#	28125
#	45260
#	65095
#	79757
#	99100
#	112125
#	123602
#	135057
#	154165
#	174595
#	188745
#	202215
#
# Disc length: 2988 seconds
#
# Revision: 0
# Processed by: cddbd v1.4PL0 Copyright (c) Steve Scherf et al.
# Submitted via: CDex 1.40Release
#
DISCID=b50baa0e
DTITLE=Vários - Sertanejo 2000
DYEAR=2000
DGENRE=Country
TTITLE0=Chitãozinho e Xororó - Alô
TTITLE1=Rionegro and Solimões - Bate o Pé
TTITLE2=Roberta Miranda -Majestade o Sabiá
TTITLE3=André e Adriano - A Jiripoca vai Piá
TTITLE4=Paula Hunter - Eu quero ser feliz
TTITLE5=Fabio e Fernando - Chora no meu colo
TTITLE6=Tonico e Tinoco - O menino da Porteira
TTITLE7=Nalva Aguiar - Ginete da Paixão
TTITLE8=Emílio e Eduardo - Sapatiõ, Sapatiõ
TTITLE9=Pena Branca e Xavantinho - O Cio da Terra
TTITLE10=Zé Mulato e Cassiano - Meu Deserto
TTITLE11=Adalberto e Adriano - Não Acredito
TTITLE12=Maurício e Mauri - Xonado eu Tô
TTITLE13=Chitãozinho and Xororó, Sandy e Junior - Coração do Brasil
EXTD=YEAR: 2000 ID3G: 2
EXTT0=
EXTT1=
EXTT2=
EXTT3=
EXTT4=
EXTT5=
EXTT6=
EXTT7=
EXTT8=
EXTT9=
EXTT10=
EXTT11=
EXTT12=
EXTT13=
PLAYORDER=
